# xmcd
#
# Track frame offsets: 
#        150
#        3762
#        21443
#        51119
#        74274
#        108770
#        138952
#        178586
#        193353
#        217284
#        233013
#        257229
#        280570
#        305171
#        321186
#        342156
#
# Disc length: 4797 seconds
#
# Revision: 0
# Processed by: cddbd v1.5.2PL0 Copyright (c) Steve Scherf et al.
# Submitted via: ExactAudioCopy v0.99pb3
#
DISCID=ec12bb10
DTITLE=Clint Brown - Nothing But Church
DYEAR=2004
DGENRE=
TTITLE0=NBC (Nothing But Church) Intro
TTITLE1=Lord I Live
TTITLE2=Come On Judah
TTITLE3=I Wanna Thank You
TTITLE4=In This Place
TTITLE5=Holy Spirit
TTITLE6=Presence Of The Lord
TTITLE7=Alone
TTITLE8=You Are
TTITLE9=I'm Overwhemled
TTITLE10=Can't Nobody Do Me Like Jesus
TTITLE11=No One
TTITLE12=In Your Glory
TTITLE13=Shake The Foundation
TTITLE14=Mighty God
TTITLE15=Nothing But Church
EXTD=
EXTT0=
EXTT1=
EXTT2=
EXTT3=
EXTT4=
EXTT5=
EXTT6=
EXTT7=
EXTT8=
EXTT9=
EXTT10=
EXTT11=
EXTT12=
EXTT13=
EXTT14=
EXTT15=
PLAYORDER=
